name Walk6.mot
datacolumns 19
datarows 30
range 2.77500000 2.80400000
endheader

                time	   L_ground_force_vx	   L_ground_force_vy	   L_ground_force_vz	   L_ground_force_px	   L_ground_force_py	   L_ground_force_pz	   R_ground_force_vx	   R_ground_force_vy	   R_ground_force_vz	   R_ground_force_px	   R_ground_force_py	   R_ground_force_pz	   L_ground_torque_x	   L_ground_torque_y	   L_ground_torque_z	   R_ground_torque_x	   R_ground_torque_y	   R_ground_torque_z	
          2.77500000	          0.07305446	          0.16399580	         -0.00124788	         -0.00017707	          0.00000000	         -0.00003099	        -20.98858211	        667.01036204	        -44.60635277	          0.39292452	          0.00000000	          0.10528097	          0.00000000	          0.00013036	          0.00000000	          0.00000000	          4.39647593	          0.00000000	
          2.77600000	          0.06953290	          0.15698571	         -0.00168012	         -0.00018055	          0.00000000	         -0.00003090	        -20.72562444	        666.03214921	        -44.34488801	          0.39338041	          0.00000000	          0.10529780	          0.00000000	          0.00011348	          0.00000000	          0.00000000	          4.33470673	          0.00000000	
          2.77700000	          0.06604800	          0.14997844	         -0.00206927	         -0.00018305	          0.00000000	         -0.00003070	        -20.46631338	        665.08411708	        -44.08347705	          0.39383644	          0.00000000	          0.10531469	          0.00000000	          0.00009761	          0.00000000	          0.00000000	          4.27412996	          0.00000000	
          2.77800000	          0.06260982	          0.14300022	         -0.00241751	         -0.00018465	          0.00000000	         -0.00003040	        -20.21056032	        664.16631136	        -43.82241133	          0.39429254	          0.00000000	          0.10533168	          0.00000000	          0.00008272	          0.00000000	          0.00000000	          4.21474116	          0.00000000	
          2.77900000	          0.05922739	          0.13607495	         -0.00272700	         -0.00018542	          0.00000000	         -0.00003001	        -19.95827051	        663.27877306	        -43.56200274	          0.39474868	          0.00000000	          0.10534879	          0.00000000	          0.00006878	          0.00000000	          0.00000000	          4.15653395	          0.00000000	
          2.78000000	          0.05590873	          0.12922430	         -0.00299988	         -0.00018542	          0.00000000	         -0.00002955	        -19.70934363	        662.42153933	        -43.30258373	          0.39520479	          0.00000000	          0.10536604	          0.00000000	          0.00005577	          0.00000000	          0.00000000	          4.09950011	          0.00000000	
          2.78100000	          0.05266098	          0.12246782	         -0.00323822	         -0.00018472	          0.00000000	         -0.00002901	        -19.46367456	        661.59464430	        -43.04450693	          0.39566082	          0.00000000	          0.10538346	          0.00000000	          0.00004366	          0.00000000	          0.00000000	          4.04362954	          0.00000000	
          2.78200000	          0.04949037	          0.11582302	         -0.00344406	         -0.00018338	          0.00000000	         -0.00002840	        -19.22115424	        660.79811978	        -42.78814424	          0.39611672	          0.00000000	          0.10540108	          0.00000000	          0.00003240	          0.00000000	          0.00000000	          3.98891021	          0.00000000	
          2.78300000	          0.04640233	          0.10930552	         -0.00361938	         -0.00018146	          0.00000000	         -0.00002774	        -18.98167046	        660.03199540	        -42.53388554	          0.39657243	          0.00000000	          0.10541894	          0.00000000	          0.00002199	          0.00000000	          0.00000000	          3.93532811	          0.00000000	
          2.78400000	          0.04340150	          0.10292913	         -0.00376612	         -0.00017902	          0.00000000	         -0.00002704	        -18.74510849	        659.29629824	        -42.28213694	          0.39702789	          0.00000000	          0.10543705	          0.00000000	          0.00001237	          0.00000000	          0.00000000	          3.88286715	          0.00000000	
          2.78500000	          0.04049181	          0.09670594	         -0.00388615	         -0.00017611	          0.00000000	         -0.00002629	        -18.51135164	        658.59105202	        -42.03331852	          0.39748304	          0.00000000	          0.10545544	          0.00000000	          0.00000353	          0.00000000	          0.00000000	          3.83150910	          0.00000000	
          2.78600000	          0.03767650	          0.09064644	         -0.00398129	         -0.00017278	          0.00000000	         -0.00002550	        -18.28028132	        657.91627630	        -41.78786163	          0.39793781	          0.00000000	          0.10547412	          0.00000000	         -0.00000458	          0.00000000	          0.00000000	          3.78123359	          0.00000000	
          2.78700000	          0.03495819	          0.08475961	         -0.00405330	         -0.00016909	          0.00000000	         -0.00002468	        -18.05177683	        657.27198595	        -41.54620580	          0.39839216	          0.00000000	          0.10549310	          0.00000000	         -0.00001197	          0.00000000	          0.00000000	          3.73201805	          0.00000000	
          2.78800000	          0.03233891	          0.07905302	         -0.00410387	         -0.00016506	          0.00000000	         -0.00002385	        -17.82571481	        656.65819131	        -41.30879524	          0.39884603	          0.00000000	          0.10551239	          0.00000000	         -0.00001870	          0.00000000	          0.00000000	          3.68383768	          0.00000000	
          2.78900000	          0.02982013	          0.07353290	         -0.00413463	         -0.00016076	          0.00000000	         -0.00002299	        -17.60196869	        656.07489959	        -41.07607502	          0.39929935	          0.00000000	          0.10553197	          0.00000000	         -0.00002478	          0.00000000	          0.00000000	          3.63666543	          0.00000000	
          2.79000000	          0.02740282	          0.06820427	         -0.00414715	         -0.00015621	          0.00000000	         -0.00002212	        -17.38040841	        655.52211741	        -40.84848707	          0.39975207	          0.00000000	          0.10555185	          0.00000000	         -0.00003025	          0.00000000	          0.00000000	          3.59047197	          0.00000000	
          2.79100000	          0.02508749	          0.06307097	         -0.00414294	         -0.00015146	          0.00000000	         -0.00002123	        -17.16090062	        654.99985406	        -40.62646595	          0.40020413	          0.00000000	          0.10557200	          0.00000000	         -0.00003514	          0.00000000	          0.00000000	          3.54522581	          0.00000000	
          2.79200000	          0.02287422	          0.05813579	         -0.00412343	         -0.00014655	          0.00000000	         -0.00002035	        -16.94330928	        654.50812465	        -40.41043474	          0.40065548	          0.00000000	          0.10559242	          0.00000000	         -0.00003949	          0.00000000	          0.00000000	          3.50089342	          0.00000000	
          2.79300000	          0.02076270	          0.05340054	         -0.00408999	         -0.00014149	          0.00000000	         -0.00001946	        -16.72749669	        654.04695247	        -40.20080116	          0.40110608	          0.00000000	          0.10561310	          0.00000000	         -0.00004331	          0.00000000	          0.00000000	          3.45743954	          0.00000000	
          2.79400000	          0.01875225	          0.04886611	         -0.00404395	         -0.00013633	          0.00000000	         -0.00001857	        -16.51332469	        653.61636969	        -39.99795401	          0.40155587	          0.00000000	          0.10563404	          0.00000000	         -0.00004665	          0.00000000	          0.00000000	          3.41482744	          0.00000000	
          2.79500000	          0.01684187	          0.04453257	         -0.00398654	         -0.00013110	          0.00000000	         -0.00001769	        -16.30065589	        653.21641612	        -39.80226006	          0.40200480	          0.00000000	          0.10565524	          0.00000000	         -0.00004952	          0.00000000	          0.00000000	          3.37301919	          0.00000000	
          2.79600000	          0.01503028	          0.04039920	         -0.00391894	         -0.00012581	          0.00000000	         -0.00001682	        -16.08935487	        652.84713572	        -39.61406165	          0.40245284	          0.00000000	          0.10567671	          0.00000000	         -0.00005197	          0.00000000	          0.00000000	          3.33197578	          0.00000000	
          2.79700000	          0.01331593	          0.03646461	         -0.00384229	         -0.00012050	          0.00000000	         -0.00001596	        -15.87928900	        652.50857146	        -39.43367479	          0.40289994	          0.00000000	          0.10569846	          0.00000000	         -0.00005401	          0.00000000	          0.00000000	          3.29165722	          0.00000000	
          2.79800000	          0.01169702	          0.03272676	         -0.00375763	         -0.00011519	          0.00000000	         -0.00001511	        -15.67032888	        652.20075970	        -39.26138770	          0.40334606	          0.00000000	          0.10572048	          0.00000000	         -0.00005567	          0.00000000	          0.00000000	          3.25202261	          0.00000000	
          2.79900000	          0.01017155	          0.02918306	         -0.00366597	         -0.00010989	          0.00000000	         -0.00001427	        -15.46234861	        651.92372563	        -39.09745985	          0.40379118	          0.00000000	          0.10574280	          0.00000000	         -0.00005698	          0.00000000	          0.00000000	          3.21303035	          0.00000000	
          2.80000000	          0.00873735	          0.02583038	         -0.00356825	         -0.00010463	          0.00000000	         -0.00001346	        -15.25522595	        651.67748065	        -38.94212114	          0.40423524	          0.00000000	          0.10576540	          0.00000000	         -0.00005796	          0.00000000	          0.00000000	          3.17463845	          0.00000000	
          2.80100000	          0.00739208	          0.02266515	         -0.00346536	         -0.00009941	          0.00000000	         -0.00001266	        -15.04884267	        651.46202180	        -38.79557146	          0.40467821	          0.00000000	          0.10578830	          0.00000000	         -0.00005864	          0.00000000	          0.00000000	          3.13680492	          0.00000000	
          2.80200000	          0.00613325	          0.01968339	         -0.00335812	         -0.00009427	          0.00000000	         -0.00001188	        -14.84308510	        651.27733232	        -38.65798050	          0.40512005	          0.00000000	          0.10581146	          0.00000000	         -0.00005905	          0.00000000	          0.00000000	          3.09948822	          0.00000000	
          2.80300000	          0.00495828	          0.01688078	         -0.00324731	         -0.00008921	          0.00000000	         -0.00001112	        -14.63784463	        651.12338247	        -38.52948782	          0.40556072	          0.00000000	          0.10583489	          0.00000000	         -0.00005919	          0.00000000	          0.00000000	          3.06264757	          0.00000000	
          2.80400000	          0.00386447	          0.01425267	         -0.00313364	         -0.00008424	          0.00000000	         -0.00001039	        -14.43301815	        651.00012968	        -38.41020323	          0.40600018	          0.00000000	          0.10585856	          0.00000000	         -0.00005910	          0.00000000	          0.00000000	          3.02624315	          0.00000000	
